<?xml version="1.0" ?><svg height="24px" version="1.1" viewBox="0 0 24 24" width="24px" xmlns="http://www.w3.org/2000/svg" xmlns:sketch="http://www.bohemiancoding.com/sketch/ns" xmlns:xlink="http://www.w3.org/1999/xlink"><title/><desc/><defs/><g fill="none" fill-rule="evenodd" id="miu" stroke="none" stroke-width="1"><g id="Artboard-1" transform="translate(-431.000000, -263.000000)"><g id="slice" transform="translate(215.000000, 119.000000)"/><path d="M454,279.354176 L454,271.007484 C454,270.451066 453.560542,270 452.997538,270 L433.002462,270 C432.448817,270 432,270.44892 432,271.007484 L432,283.992516 C432,284.548934 432.439458,285 433.002462,285 L448.354176,285 C448.030181,284.714036 447.752867,284.376405 447.535129,284 L433,284 L433,271 L453,271 L453,278.535129 C453.376405,278.752867 453.714036,279.030181 454,279.354176 L454,279.354176 Z M434,269 L434,265 L439,265 L439,267 L452,267 L452,269 L453,269 L453,266.998957 C453,266.447248 452.552511,266 452.001498,266 L440,266 L440,265 C440,264.447715 439.562119,264 438.997071,264 L434.002929,264 C433.449027,264 433,264.443717 433,264.999807 L433,269 L434,269 Z M450,279 L452,279 L452,281 L454,281 L454,283 L452,283 L452,285 L450,285 L450,283 L448,283 L448,281 L450,281 L450,279 Z" fill="#000000" id="editor-folder-add-outline-stroke"/></g></g></svg>